<?xml version="1.0" encoding="UTF-8"?>
<svg xmlns="http://www.w3.org/2000/svg" xmlns:xlink="http://www.w3.org/1999/xlink" width="75px" height="75px" viewBox="0 0 75 75" version="1.1">
<g id="surface1">
<path style=" stroke:none;fill-rule:nonzero;fill:rgb(0%,34.117647%,76.470588%);fill-opacity:1;" d="M 32.199219 29.050781 C 31.203125 29.050781 30.230469 28.597656 29.59375 27.738281 C 28.53125 26.300781 28.832031 24.277344 30.269531 23.21875 L 40.011719 16.007812 C 40.914062 15.34375 42.09375 15.1875 43.132812 15.601562 L 55.394531 20.476562 C 57.050781 21.136719 57.863281 23.015625 57.203125 24.675781 C 56.542969 26.335938 54.660156 27.144531 53.003906 26.488281 L 42.417969 22.277344 L 34.117188 28.417969 C 33.539062 28.847656 32.863281 29.050781 32.199219 29.050781 Z M 32.199219 29.050781 "/>
<path style=" stroke:none;fill-rule:nonzero;fill:rgb(0%,34.117647%,76.470588%);fill-opacity:1;" d="M 16.972656 61.710938 C 15.953125 61.710938 14.949219 61.230469 14.320312 60.332031 C 13.292969 58.871094 13.648438 56.855469 15.113281 55.828125 L 27.976562 46.804688 L 32.84375 37.003906 C 33.640625 35.40625 35.582031 34.753906 37.179688 35.550781 C 38.78125 36.34375 39.433594 38.285156 38.640625 39.886719 L 33.402344 50.417969 C 33.160156 50.902344 32.804688 51.316406 32.363281 51.625 L 18.824219 61.121094 C 18.261719 61.519531 17.613281 61.710938 16.972656 61.710938 Z M 16.972656 61.710938 "/>
<path style=" stroke:none;fill-rule:nonzero;fill:rgb(0%,44.705882%,100%);fill-opacity:1;" d="M 35.746094 41.679688 C 34.800781 41.679688 33.871094 41.269531 33.230469 40.480469 C 32.105469 39.097656 32.316406 37.058594 33.707031 35.933594 L 52.160156 20.96875 C 53.550781 19.847656 55.585938 20.058594 56.710938 21.441406 C 57.835938 22.832031 57.621094 24.867188 56.234375 25.992188 L 37.777344 40.957031 C 37.179688 41.441406 36.460938 41.679688 35.746094 41.679688 Z M 35.746094 41.679688 "/>
<path style=" stroke:none;fill-rule:nonzero;fill:rgb(0%,44.705882%,100%);fill-opacity:1;" d="M 59.640625 35.878906 C 58.535156 35.878906 57.460938 35.3125 56.855469 34.292969 L 51.417969 25.128906 C 50.503906 23.597656 51.011719 21.609375 52.546875 20.699219 C 54.082031 19.785156 56.066406 20.292969 56.980469 21.828125 L 60.816406 28.296875 L 69.703125 23.386719 C 71.269531 22.519531 73.234375 23.089844 74.097656 24.652344 C 74.960938 26.214844 74.394531 28.179688 72.835938 29.042969 L 61.203125 35.476562 C 60.707031 35.75 60.167969 35.878906 59.640625 35.878906 Z M 59.640625 35.878906 "/>
<path style=" stroke:none;fill-rule:nonzero;fill:rgb(0%,44.705882%,100%);fill-opacity:1;" d="M 69.074219 16.847656 C 69.074219 19.925781 66.574219 22.429688 63.488281 22.429688 C 60.40625 22.429688 57.910156 19.925781 57.910156 16.847656 C 57.910156 13.761719 60.40625 11.261719 63.488281 11.261719 C 66.574219 11.261719 69.074219 13.761719 69.074219 16.847656 Z M 69.074219 16.847656 "/>
<path style=" stroke:none;fill-rule:nonzero;fill:rgb(0%,44.705882%,100%);fill-opacity:1;" d="M 48.042969 46.8125 C 47.628906 46.8125 47.203125 46.734375 46.800781 46.566406 L 34.496094 41.433594 C 32.847656 40.742188 32.066406 38.851562 32.757812 37.199219 C 33.445312 35.550781 35.339844 34.777344 36.988281 35.464844 L 49.289062 40.59375 C 50.933594 41.28125 51.714844 43.175781 51.027344 44.824219 C 50.511719 46.066406 49.308594 46.8125 48.042969 46.8125 Z M 48.042969 46.8125 "/>
<path style=" stroke:none;fill-rule:nonzero;fill:rgb(0%,44.705882%,100%);fill-opacity:1;" d="M 41.585938 63.652344 C 41.199219 63.652344 40.808594 63.585938 40.429688 63.441406 C 38.761719 62.796875 37.925781 60.929688 38.566406 59.261719 L 45.023438 42.421875 C 45.660156 40.753906 47.53125 39.917969 49.199219 40.558594 C 50.867188 41.199219 51.703125 43.066406 51.066406 44.738281 L 44.605469 61.574219 C 44.113281 62.863281 42.886719 63.652344 41.585938 63.652344 Z M 41.585938 63.652344 "/>
<path style=" stroke:none;fill-rule:nonzero;fill:rgb(53.72549%,53.72549%,53.72549%);fill-opacity:1;" d="M 26.429688 38.265625 L 2.03125 38.265625 C 1.136719 38.265625 0.414062 37.542969 0.414062 36.648438 C 0.414062 35.757812 1.136719 35.035156 2.03125 35.035156 L 26.429688 35.035156 C 27.324219 35.035156 28.046875 35.757812 28.046875 36.648438 C 28.046875 37.542969 27.324219 38.265625 26.429688 38.265625 Z M 26.429688 38.265625 "/>
<path style=" stroke:none;fill-rule:nonzero;fill:rgb(53.72549%,53.72549%,53.72549%);fill-opacity:1;" d="M 23.117188 29.65625 L 7.988281 29.65625 C 7.097656 29.65625 6.371094 28.933594 6.371094 28.039062 C 6.371094 27.144531 7.097656 26.421875 7.988281 26.421875 L 23.117188 26.421875 C 24.011719 26.421875 24.734375 27.144531 24.734375 28.039062 C 24.734375 28.933594 24.011719 29.65625 23.117188 29.65625 Z M 23.117188 29.65625 "/>
<path style=" stroke:none;fill-rule:nonzero;fill:rgb(53.72549%,53.72549%,53.72549%);fill-opacity:1;" d="M 21.132812 46.875 L 7.988281 46.875 C 7.097656 46.875 6.371094 46.152344 6.371094 45.257812 C 6.371094 44.363281 7.097656 43.640625 7.988281 43.640625 L 21.132812 43.640625 C 22.027344 43.640625 22.75 44.363281 22.75 45.257812 C 22.75 46.152344 22.027344 46.875 21.132812 46.875 Z M 21.132812 46.875 "/>
</g>
</svg>
